<svg width="464" height="467" viewBox="0 0 464 467" fill="none" xmlns="http://www.w3.org/2000/svg">
<path d="M412.444 0.766724C426.118 0.766724 439.231 6.2204 448.9 15.928C458.568 25.6356 464 38.802 464 52.5306V414.878C464 428.606 458.568 441.773 448.9 451.48C439.231 461.188 426.118 466.642 412.444 466.642H51.5556C37.8822 466.642 24.7688 461.188 15.1003 451.48C5.43173 441.773 0 428.606 0 414.878V52.5306C0 38.802 5.43173 25.6356 15.1003 15.928C24.7688 6.2204 37.8822 0.766724 51.5556 0.766724H412.444ZM399.556 401.937V264.762C399.556 242.385 390.702 220.924 374.942 205.1C359.182 189.277 337.808 180.387 315.52 180.387C293.609 180.387 268.089 193.846 255.716 214.034V185.305H183.796V401.937H255.716V274.339C255.716 254.41 271.698 238.104 291.547 238.104C301.118 238.104 310.297 241.922 317.065 248.717C323.833 255.512 327.636 264.729 327.636 274.339V401.937H399.556ZM100.018 144.67C111.503 144.67 122.519 140.089 130.64 131.935C138.762 123.78 143.324 112.721 143.324 101.189C143.324 77.1184 123.991 57.4482 100.018 57.4482C88.4638 57.4482 77.383 62.0565 69.2131 70.2594C61.0431 78.4624 56.4533 89.5879 56.4533 101.189C56.4533 125.259 76.0444 144.67 100.018 144.67ZM135.849 401.937V185.305H64.4444V401.937H135.849Z" fill="black"/>
</svg>
