<svg width="557" height="576" viewBox="0 0 557 576" fill="none" xmlns="http://www.w3.org/2000/svg">
<path d="M278.5 0.92627C241.927 0.92627 205.712 8.53518 171.923 23.3186C138.133 38.1019 107.432 59.7703 81.5708 87.0864C29.3419 142.254 0 217.077 0 295.095C0 425.118 79.9295 535.431 190.494 574.556C204.419 576.909 208.875 567.79 208.875 559.847C208.875 553.082 208.875 534.549 208.875 510.133C131.73 527.783 115.299 470.714 115.299 470.714C102.488 436.591 84.3855 427.471 84.3855 427.471C59.042 409.233 86.335 409.821 86.335 409.821C114.185 411.88 128.946 440.121 128.946 440.121C153.175 484.834 194.115 471.597 209.989 464.537C212.495 445.416 219.736 432.472 227.535 425.118C165.707 417.764 100.817 392.465 100.817 280.387C100.817 247.734 111.4 221.553 129.503 200.667C126.717 193.313 116.97 162.719 132.288 123.006C132.288 123.006 155.682 115.064 208.875 153.012C230.876 146.54 254.827 143.304 278.5 143.304C302.172 143.304 326.124 146.54 348.125 153.012C401.319 115.064 424.712 123.006 424.712 123.006C440.03 162.719 430.283 193.313 427.498 200.667C445.6 221.553 456.183 247.734 456.183 280.387C456.183 392.759 391.014 417.47 328.909 424.824C338.935 433.943 348.125 451.887 348.125 479.245C348.125 518.664 348.125 550.434 348.125 559.847C348.125 567.79 352.581 577.203 366.785 574.556C477.349 535.137 557 425.118 557 295.095C557 256.464 549.796 218.212 535.8 182.522C521.805 146.831 501.29 114.403 475.429 87.0864C449.568 59.7703 418.867 38.1019 385.077 23.3186C351.288 8.53518 315.073 0.92627 278.5 0.92627Z" fill="black"/>
</svg>
