<svg width="610" height="576" viewBox="0 0 610 576" fill="none" xmlns="http://www.w3.org/2000/svg">
<path d="M176.9 0.92627H433.1C530.7 0.92627 610 75.5574 610 167.411V408.527C610 452.681 591.362 495.027 558.187 526.249C525.012 557.471 480.017 575.012 433.1 575.012H176.9C79.3 575.012 0 500.38 0 408.527V167.411C0 123.257 18.6376 80.9105 51.8128 49.6885C84.988 18.4666 129.983 0.92627 176.9 0.92627ZM170.8 58.3348C141.679 58.3348 113.751 69.2219 93.1597 88.601C72.5682 107.98 61 134.264 61 161.67V414.268C61 471.389 110.105 517.603 170.8 517.603H439.2C468.321 517.603 496.249 506.716 516.84 487.337C537.432 467.958 549 441.674 549 414.268V161.67C549 104.549 499.895 58.3348 439.2 58.3348H170.8ZM465.125 101.391C475.236 101.391 484.934 105.171 492.083 111.9C499.233 118.629 503.25 127.755 503.25 137.272C503.25 146.788 499.233 155.914 492.083 162.643C484.934 169.372 475.236 173.152 465.125 173.152C455.014 173.152 445.316 169.372 438.167 162.643C431.017 155.914 427 146.788 427 137.272C427 127.755 431.017 118.629 438.167 111.9C445.316 105.171 455.014 101.391 465.125 101.391ZM305 144.448C345.446 144.448 384.234 159.569 412.834 186.484C441.433 213.399 457.5 249.905 457.5 287.969C457.5 326.033 441.433 362.538 412.834 389.454C384.234 416.369 345.446 431.49 305 431.49C264.554 431.49 225.766 416.369 197.166 389.454C168.567 362.538 152.5 326.033 152.5 287.969C152.5 249.905 168.567 213.399 197.166 186.484C225.766 159.569 264.554 144.448 305 144.448ZM305 201.856C280.733 201.856 257.459 210.929 240.3 227.078C223.14 243.227 213.5 265.13 213.5 287.969C213.5 310.807 223.14 332.711 240.3 348.86C257.459 365.009 280.733 374.082 305 374.082C329.267 374.082 352.541 365.009 369.7 348.86C386.86 332.711 396.5 310.807 396.5 287.969C396.5 265.13 386.86 243.227 369.7 227.078C352.541 210.929 329.267 201.856 305 201.856Z" fill="black"/>
</svg>
