<svg width="48" height="48" viewBox="0 0 48 48" fill="none" xmlns="http://www.w3.org/2000/svg">
<g filter="url(#filter0_d_64_682)">
<path d="M15.6 0H32.4C38.8 0 44 5.2 44 11.6V28.4C44 31.4765 42.7779 34.427 40.6024 36.6024C38.427 38.7779 35.4765 40 32.4 40H15.6C9.2 40 4 34.8 4 28.4V11.6C4 8.52349 5.22214 5.57298 7.39756 3.39756C9.57298 1.22214 12.5235 0 15.6 0ZM15.2 4C13.2904 4 11.4591 4.75857 10.1088 6.10883C8.75857 7.45909 8 9.29044 8 11.2V28.8C8 32.78 11.22 36 15.2 36H32.8C34.7096 36 36.5409 35.2414 37.8912 33.8912C39.2414 32.5409 40 30.7096 40 28.8V11.2C40 7.22 36.78 4 32.8 4H15.2ZM34.5 7C35.163 7 35.7989 7.26339 36.2678 7.73223C36.7366 8.20107 37 8.83696 37 9.5C37 10.163 36.7366 10.7989 36.2678 11.2678C35.7989 11.7366 35.163 12 34.5 12C33.837 12 33.2011 11.7366 32.7322 11.2678C32.2634 10.7989 32 10.163 32 9.5C32 8.83696 32.2634 8.20107 32.7322 7.73223C33.2011 7.26339 33.837 7 34.5 7ZM24 10C26.6522 10 29.1957 11.0536 31.0711 12.9289C32.9464 14.8043 34 17.3478 34 20C34 22.6522 32.9464 25.1957 31.0711 27.0711C29.1957 28.9464 26.6522 30 24 30C21.3478 30 18.8043 28.9464 16.9289 27.0711C15.0536 25.1957 14 22.6522 14 20C14 17.3478 15.0536 14.8043 16.9289 12.9289C18.8043 11.0536 21.3478 10 24 10ZM24 14C22.4087 14 20.8826 14.6321 19.7574 15.7574C18.6321 16.8826 18 18.4087 18 20C18 21.5913 18.6321 23.1174 19.7574 24.2426C20.8826 25.3679 22.4087 26 24 26C25.5913 26 27.1174 25.3679 28.2426 24.2426C29.3679 23.1174 30 21.5913 30 20C30 18.4087 29.3679 16.8826 28.2426 15.7574C27.1174 14.6321 25.5913 14 24 14Z" fill="white"/>
<path d="M15.6 0.5H32.4C38.5239 0.5 43.5 5.47614 43.5 11.6V28.4C43.5 31.3439 42.3305 34.1672 40.2489 36.2489C38.1672 38.3305 35.3439 39.5 32.4 39.5H15.6C9.47614 39.5 4.5 34.5239 4.5 28.4V11.6C4.5 8.6561 5.66946 5.83277 7.75112 3.75112C9.83277 1.66946 12.6561 0.5 15.6 0.5ZM15.2 3.5C13.1578 3.5 11.1993 4.31125 9.75528 5.75528C8.31125 7.19931 7.5 9.15783 7.5 11.2V28.8C7.5 33.0561 10.9439 36.5 15.2 36.5H32.8C34.8422 36.5 36.8007 35.6888 38.2447 34.2447C39.6888 32.8007 40.5 30.8422 40.5 28.8V11.2C40.5 6.94386 37.0561 3.5 32.8 3.5H15.2ZM34.5 7.5C35.0304 7.5 35.5391 7.71071 35.9142 8.08579C36.2893 8.46086 36.5 8.96957 36.5 9.5C36.5 10.0304 36.2893 10.5391 35.9142 10.9142C35.5391 11.2893 35.0304 11.5 34.5 11.5C33.9696 11.5 33.4609 11.2893 33.0858 10.9142C32.7107 10.5391 32.5 10.0304 32.5 9.5C32.5 8.96957 32.7107 8.46086 33.0858 8.08579C33.4609 7.71071 33.9696 7.5 34.5 7.5ZM24 10.5C26.5196 10.5 28.9359 11.5009 30.7175 13.2825C32.4991 15.0641 33.5 17.4804 33.5 20C33.5 22.5196 32.4991 24.9359 30.7175 26.7175C28.9359 28.4991 26.5196 29.5 24 29.5C21.4804 29.5 19.0641 28.4991 17.2825 26.7175C15.5009 24.9359 14.5 22.5196 14.5 20C14.5 17.4804 15.5009 15.0641 17.2825 13.2825C19.0641 11.5009 21.4804 10.5 24 10.5ZM24 13.5C22.2761 13.5 20.6228 14.1848 19.4038 15.4038C18.1848 16.6228 17.5 18.2761 17.5 20C17.5 21.7239 18.1848 23.3772 19.4038 24.5962C20.6228 25.8152 22.2761 26.5 24 26.5C25.7239 26.5 27.3772 25.8152 28.5962 24.5962C29.8152 23.3772 30.5 21.7239 30.5 20C30.5 18.2761 29.8152 16.6228 28.5962 15.4038C27.3772 14.1848 25.7239 13.5 24 13.5Z" stroke="black"/>
</g>
<defs>
<filter id="filter0_d_64_682" x="0" y="0" width="48" height="48" filterUnits="userSpaceOnUse" color-interpolation-filters="sRGB">
<feFlood flood-opacity="0" result="BackgroundImageFix"/>
<feColorMatrix in="SourceAlpha" type="matrix" values="0 0 0 0 0 0 0 0 0 0 0 0 0 0 0 0 0 0 127 0" result="hardAlpha"/>
<feOffset dy="4"/>
<feGaussianBlur stdDeviation="2"/>
<feComposite in2="hardAlpha" operator="out"/>
<feColorMatrix type="matrix" values="0 0 0 0 0 0 0 0 0 0 0 0 0 0 0 0 0 0 0.25 0"/>
<feBlend mode="normal" in2="BackgroundImageFix" result="effect1_dropShadow_64_682"/>
<feBlend mode="normal" in="SourceGraphic" in2="effect1_dropShadow_64_682" result="shape"/>
</filter>
</defs>
</svg>
